<?xml version="1.0" encoding="UTF-8" standalone="no"?>
<!-- Created with Inkscape (http://www.inkscape.org/) -->

<svg
   xmlns:osb="http://www.openswatchbook.org/uri/2009/osb"
   xmlns:dc="http://purl.org/dc/elements/1.1/"
   xmlns:cc="http://creativecommons.org/ns#"
   xmlns:rdf="http://www.w3.org/1999/02/22-rdf-syntax-ns#"
   xmlns:svg="http://www.w3.org/2000/svg"
   xmlns="http://www.w3.org/2000/svg"
   xmlns:xlink="http://www.w3.org/1999/xlink"
   xmlns:sodipodi="http://sodipodi.sourceforge.net/DTD/sodipodi-0.dtd"
   xmlns:inkscape="http://www.inkscape.org/namespaces/inkscape"
   width="150"
   height="160"
   id="svg2993"
   version="1.1"
   inkscape:version="0.48.2 r9819"
   sodipodi:docname="персонаж 1.svg">
  <defs
     id="defs2995">
    <inkscape:perspective
       sodipodi:type="inkscape:persp3d"
       inkscape:vp_x="692.93697 : 427.57379 : 1"
       inkscape:vp_y="16.768538 : 882.98587 : 0"
       inkscape:vp_z="473.92111 : 129.55307 : 1"
       inkscape:persp3d-origin="403.35304 : -316.84236 : 1"
       id="perspective6063" />
    <marker
       inkscape:stockid="DiamondSend"
       orient="auto"
       refY="0"
       refX="0"
       id="DiamondSend"
       style="overflow:visible">
      <path
         id="path5726"
         d="M 0,-7.0710768 -7.0710894,0 0,7.0710589 7.0710462,0 0,-7.0710768 z"
         style="fill-rule:evenodd;stroke:#000000;stroke-width:1pt;marker-start:none"
         transform="matrix(0.2,0,0,0.2,-1.2,0)"
         inkscape:connector-curvature="0" />
    </marker>
    <linearGradient
       id="linearGradient5253"
       osb:paint="solid">
      <stop
         style="stop-color:#b80000;stop-opacity:1;"
         offset="0"
         id="stop5255" />
    </linearGradient>
    <linearGradient
       inkscape:collect="always"
       xlink:href="#linearGradient5253"
       id="linearGradient5257"
       x1="199.50005"
       y1="309.50504"
       x2="217.6429"
       y2="309.50504"
       gradientUnits="userSpaceOnUse"
       gradientTransform="translate(243.27261,-112.68839)" />
  </defs>
  <sodipodi:namedview
     id="base"
     pagecolor="#ffffff"
     bordercolor="#666666"
     borderopacity="1.0"
     inkscape:pageopacity="0.0"
     inkscape:pageshadow="2"
     inkscape:zoom="0.35"
     inkscape:cx="999.28697"
     inkscape:cy="-377.5039"
     inkscape:document-units="px"
     inkscape:current-layer="layer1"
     showgrid="false"
     inkscape:window-width="1280"
     inkscape:window-height="778"
     inkscape:window-x="-8"
     inkscape:window-y="-8"
     inkscape:window-maximized="1"
     fit-margin-top="0"
     fit-margin-left="0"
     fit-margin-right="0"
     fit-margin-bottom="0" />
  <metadata
     id="metadata2998">
    <rdf:RDF>
      <cc:Work
         rdf:about="">
        <dc:format>image/svg+xml</dc:format>
        <dc:type
           rdf:resource="http://purl.org/dc/dcmitype/StillImage" />
        <dc:title></dc:title>
      </cc:Work>
    </rdf:RDF>
  </metadata>
  <g
     inkscape:label="Layer 1"
     inkscape:groupmode="layer"
     id="layer1"
     transform="translate(-202.85713,-476.6479)">
    <path
       sodipodi:type="arc"
       style="fill:#552200"
       id="path3001"
       sodipodi:cx="511.42856"
       sodipodi:cy="516.64789"
       sodipodi:rx="48.57143"
       sodipodi:ry="70"
       d="m 559.99999,516.64789 c 0,38.65993 -21.74617,70 -48.57143,70 -26.82526,0 -48.57143,-31.34007 -48.57143,-70 0,-38.65993 21.74617,-70 48.57143,-70 26.82526,0 48.57143,31.34007 48.57143,70 z"
       transform="matrix(0.30882352,0,0,0.30352303,141.97479,341.07998)" />
    <path
       transform="matrix(0.30882352,0,0,0.30352303,90.79832,351.92009)"
       sodipodi:type="arc"
       style="fill:#552200"
       id="path3001-1"
       sodipodi:cx="511.42856"
       sodipodi:cy="516.64789"
       sodipodi:rx="48.57143"
       sodipodi:ry="70"
       d="m 559.99999,516.64789 c 0,38.65993 -21.74617,70 -48.57143,70 -26.82526,0 -48.57143,-31.34007 -48.57143,-70 0,-38.65993 21.74617,-70 48.57143,-70 26.82526,0 48.57143,31.34007 48.57143,70 z" />
    <path
       transform="matrix(0.30882352,0,0,0.30352303,155.21008,400.48378)"
       sodipodi:type="arc"
       id="path2985"
       sodipodi:cx="397.14285"
       sodipodi:cy="556.64789"
       sodipodi:rx="242.85715"
       sodipodi:ry="221.42857"
       d="m 640,556.64789 c 0,122.29162 -108.73085,221.42857 -242.85715,221.42857 -134.1263,0 -242.85714,-99.13695 -242.85714,-221.42857 0,-122.29163 108.73084,-221.42858 242.85714,-221.42858 134.1263,0 242.85715,99.13695 242.85715,221.42858 z" />
    <path
       d="m 267.88515,635.57688 c -7.23641,-0.87972 -19.21872,-4.42715 -25.54272,-7.56206 -14.4612,-7.1686 -27.64641,-20.50586 -33.73803,-34.1271 -4.97794,-11.13095 -6.43916,-27.55723 -3.46317,-38.93086 5.99186,-22.89967 25.05799,-41.45124 50.48004,-49.11769 7.19227,-2.16895 9.15851,-2.38353 22.01528,-2.40254 10.95121,-0.0162 15.404,0.33011 19.85294,1.54401 21.72994,5.92904 38.88169,19.0348 47.91123,36.60935 5.10778,9.94144 6.35644,15.49976 6.31482,28.10941 -0.0346,10.47442 -0.2941,12.42871 -2.46442,18.55754 -6.77141,19.12205 -22.1163,34.55458 -42.19248,42.4334 -11.17969,4.38746 -27.0227,6.36373 -39.17349,4.88654 z"
       id="path2987"
       inkscape:connector-curvature="0"
       style="fill:#c8b7b7" />
    <path
       sodipodi:type="arc"
       style="fill:#6c5353"
       id="path2989"
       sodipodi:cx="402.85715"
       sodipodi:cy="570.93359"
       sodipodi:rx="134.28572"
       sodipodi:ry="110.00001"
       d="m 537.14287,570.93359 c 0,60.75133 -60.12177,110.00001 -134.28572,110.00001 -74.16396,0 -134.28572,-49.24868 -134.28572,-110.00001 0,-60.75132 60.12176,-110 134.28572,-110 74.16395,0 134.28572,49.24868 134.28572,110 z"
       transform="matrix(0.30882352,0,0,0.30352303,154.85713,398.74936)"
       inkscape:transform-center-x="10.588243" />
  </g>
</svg>
